<?xml version="1.0" standalone="no"?>
<!DOCTYPE svg PUBLIC "-//W3C//DTD SVG 20010904//EN"
 "http://www.w3.org/TR/2001/REC-SVG-20010904/DTD/svg10.dtd">
<svg version="1.0" xmlns="http://www.w3.org/2000/svg"
 width="955.395245pt" height="841.339336pt" viewBox="0 0 955.395245 841.339336"
 preserveAspectRatio="xMidYMid meet">
<metadata>
Created by potrace 1.12, written by Peter Selinger 2001-2015
</metadata>
<g transform="translate(-34.104755,973.078557) scale(0.100000,-0.100000)"
fill="#ffffff" stroke="none">
<path d="M2953 9715 c-101 -31 -160 -84 -205 -181 l-23 -49 0 -575 c0 -451 3
-585 13 -621 32 -109 138 -198 260 -219 47 -8 234 -11 622 -8 l555 3 60 24
c42 16 77 40 116 80 93 94 89 65 89 728 0 541 -1 576 -19 623 -38 101 -113
168 -217 195 -80 21 -1185 21 -1251 0z m715 -210 c133 -31 248 -113 324 -229
41 -63 78 -168 78 -220 0 -18 27 -88 66 -168 54 -111 65 -142 59 -167 -8 -39
-58 -81 -96 -81 l-29 0 0 -69 c0 -54 -5 -75 -23 -102 -32 -50 -97 -79 -174
-79 l-62 0 -3 -47 c-3 -48 -3 -48 -38 -48 l-35 0 -3 88 c-2 65 0 87 10 88 7 1
50 0 94 -1 59 -1 91 3 113 14 17 9 32 18 32 19 1 1 4 49 8 107 l6 105 53 3
c33 2 55 8 58 16 3 8 -15 54 -39 102 -52 106 -71 157 -87 244 -62 338 -477
474 -733 240 -108 -100 -156 -224 -144 -373 8 -90 62 -206 136 -289 l51 -56 0
-156 0 -156 -35 0 c-21 0 -35 5 -36 13 0 6 0 64 1 128 l1 116 -56 71 c-31 39
-69 98 -85 131 -106 212 -68 453 96 617 129 130 312 181 492 139z m-68 -205
c32 0 76 -47 90 -95 30 -108 -62 -204 -170 -175 -93 25 -130 146 -67 223 23
29 92 60 115 52 8 -3 22 -5 32 -5z m146 -354 c33 -33 34 -37 34 -110 l0 -76
-222 2 -223 3 -3 59 c-4 72 12 112 52 137 27 16 52 19 180 19 l148 0 34 -34z"/>
<path d="M5839 9711 c-95 -37 -154 -103 -184 -204 -14 -48 -15 -126 -13 -628
3 -564 3 -575 25 -621 32 -70 94 -131 166 -164 l62 -29 585 -3 c564 -3 587 -2
651 18 85 25 165 95 200 172 l24 53 0 585 c0 446 -3 595 -13 627 -25 85 -123
178 -210 203 -23 6 -260 10 -642 9 -560 0 -608 -1 -651 -18z m420 -288 c105
-33 171 -121 171 -226 0 -68 -16 -110 -60 -161 -51 -57 -102 -80 -185 -80 -80
-1 -128 20 -182 76 -43 45 -63 96 -63 163 0 67 20 118 63 163 72 76 157 97
256 65z m729 -15 c32 -32 14 -60 -164 -248 -97 -102 -303 -321 -457 -487 -166
-179 -289 -303 -299 -303 -24 0 -58 35 -58 60 0 20 25 48 325 366 88 93 256
272 374 397 175 186 218 227 240 227 15 0 32 -5 39 -12z m-52 -582 c159 -74
194 -277 68 -398 -51 -49 -100 -68 -172 -68 -114 0 -215 79 -242 189 -47 198
160 364 346 277z"/>
<path d="M6134 9324 c-119 -41 -124 -212 -8 -260 115 -48 219 47 190 172 -16
70 -107 114 -182 88z"/>
<path d="M6770 8732 c-47 -23 -80 -75 -80 -126 0 -110 125 -183 217 -126 95
58 84 213 -17 254 -52 20 -77 20 -120 -2z"/>
<path d="M547 8416 c-82 -30 -130 -74 -178 -166 l-24 -45 -3 -589 c-3 -655 -3
-652 63 -739 25 -32 55 -55 102 -79 l68 -33 585 -3 c607 -3 653 -1 730 38 51
26 114 98 136 156 18 46 19 83 19 649 l0 600 -27 52 c-36 67 -89 120 -147 147
-45 21 -58 21 -666 23 -504 2 -627 0 -658 -11z m250 -358 c88 -82 -1 -230
-110 -184 -120 50 -76 228 52 211 19 -2 45 -14 58 -27z m937 -34 c21 -20 20
-63 -1 -86 -15 -17 -40 -18 -376 -18 -321 0 -362 2 -379 17 -22 20 -23 61 -1
85 15 17 40 18 379 18 316 0 365 -2 378 -16z m-953 -330 c63 -32 71 -120 15
-173 -65 -62 -181 -10 -178 80 2 87 85 134 163 93z m951 -51 c22 -20 23 -61 1
-85 -15 -17 -40 -18 -379 -18 -316 0 -365 2 -378 16 -21 20 -20 63 1 86 15 17
40 18 376 18 321 0 362 -2 379 -17z m-959 -324 c37 -19 57 -52 57 -94 0 -49
-22 -83 -66 -101 -84 -35 -172 45 -144 130 21 65 93 95 153 65z m959 -56 c24
-22 23 -66 -3 -89 -20 -18 -41 -19 -374 -19 -333 0 -354 1 -374 19 -25 23 -27
63 -4 88 15 17 40 18 376 18 321 0 362 -2 379 -17z"/>
<path d="M8395 8412 c-96 -33 -171 -115 -195 -212 -7 -31 -10 -225 -8 -630 l3
-585 27 -51 c39 -74 107 -130 187 -155 64 -19 90 -20 661 -17 l595 3 57 28
c65 32 121 89 152 156 21 45 21 54 21 646 0 594 0 600 -22 647 -30 66 -95 132
-156 159 l-52 24 -610 2 c-558 2 -614 1 -660 -15z m133 -799 l2 -503 549 0
c599 0 576 2 569 -57 l-3 -28 -589 -3 c-426 -1 -593 1 -602 9 -12 9 -14 107
-14 544 0 292 3 535 7 539 4 4 23 6 43 4 l35 -3 3 -502z m1100 407 c2 -52 0
-110 -3 -128 -6 -31 -8 -33 -43 -30 -35 3 -37 5 -42 46 l-5 42 -194 -185
c-107 -102 -202 -185 -212 -185 -10 0 -55 31 -101 69 l-83 68 -121 -113 c-75
-70 -130 -114 -143 -114 -11 0 -28 12 -38 27 l-17 26 149 143 c89 85 158 143
170 144 11 0 54 -32 98 -71 l77 -71 176 169 177 168 -53 5 c-60 6 -77 22 -66
64 l7 27 132 -3 132 -3 3 -95z m-100 -567 l2 -263 -55 0 -55 0 0 258 c0 142 3
262 7 266 4 4 28 6 53 4 l45 -3 3 -262z m-250 -105 l3 -158 -61 0 -60 0 0 154
c0 114 3 156 13 160 6 3 32 4 57 3 l45 -2 3 -157z m-263 -3 l0 -150 -55 0 -55
0 -3 140 c-1 76 0 145 3 153 3 9 20 12 57 10 l53 -3 0 -150z m-230 -70 l0 -80
-60 0 -60 0 -3 69 c-4 96 -3 98 65 94 l58 -3 0 -80z"/>
<path d="M4985 7446 c-252 -113 -914 -400 -1888 -817 l-688 -294 4 -595 c4
-448 9 -633 21 -750 62 -597 208 -1115 456 -1611 417 -831 1119 -1503 2070
-1979 l165 -83 123 63 c825 419 1443 940 1855 1562 391 590 610 1224 692 2008
30 282 55 1118 40 1302 l-7 84 -187 78 c-742 314 -1548 662 -2088 902 -215 96
-404 176 -420 179 -20 4 -61 -10 -148 -49z m45 -846 l0 -630 -48 35 c-62 44
-132 74 -196 83 l-51 7 -3 202 -2 201 42 25 c58 34 88 88 88 161 0 117 -78
196 -195 196 -74 0 -119 -22 -157 -76 -15 -21 -29 -57 -31 -78 l-4 -40 -153
-63 c-84 -35 -338 -143 -564 -240 -226 -97 -460 -197 -521 -223 l-110 -47 -38
25 c-118 78 -270 3 -284 -142 -6 -64 26 -129 80 -165 l37 -24 0 -352 0 -352
-37 -24 c-47 -30 -72 -74 -79 -136 -7 -62 25 -126 84 -167 76 -54 192 -35 251
39 17 23 25 25 147 27 l129 3 0 60 0 60 -117 3 -118 3 -20 38 c-20 40 -58 76
-91 86 -18 6 -19 20 -19 358 l0 352 45 18 c41 17 46 17 72 3 43 -24 556 -266
564 -266 11 0 46 60 54 91 6 25 0 28 -222 131 -125 58 -265 123 -310 143 -46
21 -83 43 -83 50 0 6 33 24 73 39 39 16 212 88 382 161 171 73 440 187 598
255 l288 122 45 -23 44 -24 0 -210 0 -211 -46 -12 c-79 -21 -190 -104 -231
-173 -13 -22 -29 -29 -96 -42 -221 -44 -378 -199 -421 -417 -4 -18 -21 -33
-61 -54 -171 -88 -272 -328 -219 -517 l16 -58 -42 -48 c-99 -112 -140 -268
-109 -415 27 -129 139 -291 227 -327 l32 -13 0 -92 c1 -188 53 -320 176 -443
98 -97 240 -163 352 -163 24 0 30 -7 46 -52 50 -140 162 -243 306 -279 l65
-17 3 -240 2 -241 -30 -16 -31 -16 -112 85 c-164 124 -355 295 -506 453 l-132
138 5 50 c13 120 -49 200 -164 214 -43 6 -46 8 -87 81 -135 235 -239 467 -313
695 -23 72 -50 153 -59 180 l-16 50 -206 3 -206 2 -21 103 c-85 398 -115 763
-110 1321 l3 359 215 92 c377 161 1114 479 1450 625 179 78 407 177 507 221
100 43 194 85 210 93 15 8 29 15 31 16 1 0 2 -283 2 -630z m452 512 c343 -153
974 -428 1238 -540 195 -83 479 -203 849 -360 l64 -27 -6 -425 c-9 -572 -35
-871 -105 -1221 l-27 -134 -214 -5 c-176 -4 -215 -8 -222 -20 -5 -8 -25 -73
-44 -143 -74 -269 -194 -553 -327 -774 l-61 -101 -46 -5 c-25 -2 -59 -10 -76
-16 -28 -12 -36 -9 -123 39 -100 57 -97 51 -49 106 l18 21 -73 -4 c-71 -5 -74
-7 -123 -53 -58 -55 -191 -163 -256 -207 -80 -55 -283 -173 -299 -173 -21 0
-192 122 -327 234 l-62 51 0 1201 c-1 1098 0 1202 15 1208 9 3 90 54 180 112
l164 106 33 -20 c325 -197 504 -303 549 -327 l55 -28 101 28 c56 16 102 31
102 34 0 3 -46 30 -103 60 -93 49 -545 312 -643 373 l-40 26 -3 179 -3 180 51
36 51 37 99 -44 c54 -25 125 -56 157 -69 33 -13 248 -104 479 -202 231 -98
460 -195 510 -216 49 -20 91 -42 93 -48 2 -6 -131 -77 -295 -160 -332 -166
-322 -156 -178 -183 l66 -12 215 107 c118 59 219 107 224 107 4 0 27 -12 49
-27 l41 -27 0 -337 0 -338 -22 -12 c-39 -20 -77 -61 -89 -96 l-11 -33 -109 0
-109 0 0 -65 0 -65 118 0 118 0 23 -31 c55 -75 186 -91 259 -32 108 87 108
227 -2 305 l-46 32 0 338 0 337 29 15 c137 72 130 266 -12 335 -57 28 -103 26
-163 -4 l-49 -25 -40 19 c-22 10 -92 40 -155 66 -63 26 -214 89 -335 140 -533
226 -743 314 -782 330 -30 12 -43 23 -43 36 0 29 -28 90 -53 117 -34 36 -92
62 -139 62 -78 -1 -162 -56 -187 -123 -15 -39 -14 -111 3 -150 13 -32 78 -97
96 -97 6 0 10 -76 10 -194 l0 -194 -112 -74 c-62 -41 -125 -82 -140 -92 l-28
-18 0 646 0 646 23 -9 c12 -5 124 -54 249 -109z m133 -367 c52 -51 16 -145
-55 -145 -37 0 -90 47 -90 80 0 78 91 119 145 65z m1676 -708 c21 -16 39 -51
39 -77 0 -30 -53 -80 -85 -80 -16 0 -38 12 -56 29 -17 18 -29 40 -29 56 0 58
87 106 131 72z m-2485 -104 c35 -12 68 -35 115 -82 107 -107 104 -88 104 -646
l0 -470 -190 0 -190 0 -58 30 c-118 59 -187 158 -187 268 0 65 -10 87 -81 193
-79 117 -172 179 -290 192 -57 6 -64 10 -67 30 -10 66 135 208 265 261 44 18
58 10 82 -44 43 -96 111 -157 209 -186 25 -7 54 -25 69 -43 34 -41 28 -101
-16 -151 -36 -42 -39 -76 -11 -122 53 -87 189 -82 236 8 25 49 14 109 -30 166
-20 26 -36 58 -36 72 0 48 -20 100 -47 121 -14 11 -51 28 -82 36 -31 9 -68 25
-83 35 -33 24 -68 95 -68 137 0 73 60 158 135 193 51 24 154 25 221 2z m-711
-657 c55 -25 113 -83 134 -134 12 -30 12 -35 -3 -50 -16 -16 -19 -15 -39 9
-12 15 -30 41 -39 58 -22 41 -87 71 -153 71 -104 0 -212 -82 -254 -194 -11
-31 -21 -59 -21 -61 0 -3 31 -5 69 -5 82 0 153 -21 235 -71 77 -46 126 -107
126 -157 0 -81 -71 -136 -145 -112 -19 6 -58 24 -87 40 -57 32 -123 39 -175
19 -76 -28 -143 -135 -143 -230 0 -65 22 -144 50 -179 l20 -25 27 35 c48 63
150 159 213 199 109 70 323 140 391 127 84 -15 143 -85 142 -166 -2 -122 -113
-193 -226 -145 -74 31 -137 13 -223 -61 -41 -34 -64 -66 -96 -131 -42 -85 -43
-89 -43 -187 1 -122 21 -183 92 -270 51 -61 137 -121 189 -132 31 -6 33 -4 59
54 34 77 126 167 214 212 35 17 75 45 88 60 78 93 203 98 296 12 39 -37 60
-113 46 -166 -23 -87 -122 -147 -204 -124 -93 25 -146 3 -185 -78 -19 -38 -22
-57 -18 -120 6 -95 38 -145 117 -186 130 -68 296 -11 379 130 l27 47 3 398 3
397 -108 0 c-153 -1 -203 -22 -244 -102 -47 -92 -172 -90 -220 4 -38 75 -17
160 58 233 90 87 181 115 381 115 l132 0 0 64 0 64 -172 4 c-159 4 -179 6
-242 31 -137 54 -225 126 -317 262 -43 63 -47 98 -13 103 16 2 31 -12 63 -61
78 -120 184 -205 308 -246 54 -18 87 -21 242 -21 168 0 181 -1 191 -19 15 -28
13 -213 -2 -234 -11 -13 -41 -16 -198 -19 -168 -3 -190 -5 -236 -26 -61 -27
-117 -82 -139 -135 -26 -62 3 -117 61 -117 29 0 36 6 53 38 25 48 66 87 116
108 41 18 239 29 313 17 l33 -5 -3 -432 c-3 -429 -3 -431 -27 -484 -31 -70
-122 -153 -198 -183 -77 -30 -189 -31 -254 -2 -65 29 -114 76 -146 141 -23 47
-27 68 -26 129 2 124 64 219 171 259 38 15 44 15 60 2 45 -39 126 -28 162 22
41 58 18 140 -50 175 -58 30 -119 15 -175 -45 -16 -17 -61 -48 -100 -68 -87
-45 -155 -114 -190 -189 -14 -32 -30 -65 -34 -73 -13 -23 -78 -17 -141 12
-172 79 -280 248 -280 437 0 278 243 527 437 446 51 -22 87 -19 121 10 39 33
48 74 27 118 -32 69 -99 77 -237 28 -141 -48 -224 -97 -308 -181 -42 -41 -90
-96 -108 -122 -19 -30 -39 -48 -51 -48 -26 0 -78 62 -110 130 -22 47 -26 69
-26 150 0 84 3 102 28 152 54 110 169 179 276 164 25 -3 78 -22 117 -41 80
-40 90 -41 116 -18 28 25 22 49 -23 94 -81 81 -221 125 -314 99 -66 -18 -79
-4 -72 76 11 141 116 275 247 315 52 16 134 9 185 -15z m3194 -281 c75 -38 43
-155 -43 -155 -26 0 -40 7 -60 31 -34 40 -33 74 3 110 33 32 58 36 100 14z
m-4215 -782 c77 -247 228 -590 350 -796 l44 -76 -19 -38 c-40 -78 -13 -181 62
-230 36 -24 53 -28 111 -28 l69 0 83 -95 c165 -189 502 -492 649 -583 44 -28
47 -33 47 -72 0 -63 37 -125 90 -153 59 -31 142 -27 194 9 43 29 86 108 86
158 -1 50 -31 112 -73 147 l-35 29 -4 242 -3 241 41 7 c52 7 146 52 207 99 26
20 49 36 52 36 3 0 5 -337 5 -750 0 -412 -2 -750 -5 -750 -2 0 -48 25 -102 56
-928 536 -1576 1210 -1934 2009 -60 135 -209 552 -209 585 0 6 51 10 138 10
l138 0 18 -57z m4382 40 c-102 -334 -169 -509 -284 -743 -365 -742 -950 -1324
-1847 -1837 l-110 -63 -3 762 c-1 419 0 763 2 765 2 2 57 -35 122 -82 64 -48
130 -93 146 -101 l28 -15 0 -229 0 -229 -30 -16 c-72 -37 -108 -146 -76 -230
46 -120 208 -161 307 -78 40 34 68 96 69 149 0 40 2 43 73 89 182 121 397 304
570 485 l108 113 79 1 c71 1 81 4 117 32 74 59 95 156 54 249 l-21 48 59 101
c127 214 237 481 326 789 l16 57 150 0 c139 0 150 -1 145 -17z m-3192 -89 c33
-13 15 -283 -22 -334 -68 -91 -200 -94 -267 -6 -29 38 -43 104 -31 151 11 42
73 102 124 120 26 9 72 29 102 45 58 31 69 34 94 24z m2062 -878 l90 -49 0
-56 c-1 -31 3 -66 7 -78 7 -19 -4 -35 -75 -109 -169 -177 -363 -342 -589 -503
-45 -32 -47 -32 -83 -17 l-36 15 0 215 0 215 29 20 c16 12 32 21 37 21 4 0 43
21 88 46 111 64 266 178 356 263 41 38 77 69 80 68 3 -1 46 -24 96 -51z m347
-58 c24 -25 28 -36 23 -62 -14 -73 -95 -99 -147 -47 -47 48 -32 115 31 140 34
13 60 5 93 -31z m-1028 -863 c54 -53 16 -145 -60 -145 -79 0 -112 84 -56 141
38 37 82 39 116 4z"/>
<path d="M5316 5518 c-14 -20 -16 -125 -16 -930 l0 -907 22 -21 c21 -19 34
-20 305 -20 l283 0 0 725 0 725 370 0 370 0 0 -95 0 -95 -210 0 -210 0 0 -50
0 -50 210 0 211 0 -3 -92 -3 -93 -207 -3 -208 -2 0 -50 0 -50 210 0 210 0 0
-95 0 -95 -210 0 -210 0 0 -50 0 -50 210 0 210 0 0 -95 0 -95 -210 0 -210 0 0
-50 0 -50 210 0 210 0 0 -90 0 -90 -207 -2 -208 -3 -3 -52 -3 -53 240 0 239 0
31 26 31 26 0 899 0 900 -25 24 -24 25 -695 0 -695 0 -15 -22z m484 -203 l0
-115 -190 0 -190 0 0 115 0 115 190 0 190 0 0 -115z m850 0 l0 -115 -370 0
-370 0 0 115 0 115 370 0 370 0 0 -115z m-850 -320 l0 -95 -190 0 -190 0 0 95
0 95 190 0 190 0 0 -95z m-2 -287 l-3 -93 -187 -3 -188 -2 0 95 0 95 190 0
191 0 -3 -92z m2 -293 l0 -95 -190 0 -190 0 0 95 0 95 190 0 190 0 0 -95z m0
-290 l0 -95 -190 0 -190 0 0 95 0 95 190 0 190 0 0 -95z m-2 -285 c-2 -50 -6
-90 -10 -90 -5 0 -89 0 -188 0 l-180 0 0 90 0 90 190 0 191 0 -3 -90z"/>
<path d="M5470 4995 l0 -25 139 0 139 0 0 25 0 25 -139 0 -139 0 0 -25z"/>
<path d="M5470 4705 l0 -26 138 3 c134 3 137 4 140 26 3 22 3 22 -137 22
l-141 0 0 -25z"/>
<path d="M5470 4415 l0 -26 137 3 c132 3 136 4 139 26 4 22 3 22 -136 22
l-140 0 0 -25z"/>
<path d="M5470 4125 l0 -25 140 0 c139 0 140 0 136 23 -3 21 -7 22 -139 25
l-137 3 0 -26z"/>
<path d="M5470 3835 l0 -26 137 3 c132 3 136 4 139 26 4 22 3 22 -136 22
l-140 0 0 -25z"/>
<path d="M6010 4995 c0 -24 3 -25 60 -25 57 0 60 1 60 25 0 24 -3 25 -60 25
-57 0 -60 -1 -60 -25z"/>
<path d="M6233 4995 l0 -25 178 0 179 0 0 25 0 25 -179 0 -178 0 0 -25z"/>
<path d="M6010 4850 l0 -50 60 0 60 0 0 50 0 50 -60 0 -60 0 0 -50z"/>
<path d="M6010 4704 c0 -25 2 -26 58 -22 50 3 57 6 60 26 3 21 0 22 -57 22
-59 0 -61 -1 -61 -26z"/>
<path d="M6232 4708 c3 -23 5 -23 181 -26 l177 -2 0 25 0 25 -181 0 -180 0 3
-22z"/>
<path d="M6010 4560 l0 -50 60 0 60 0 0 50 0 50 -60 0 -60 0 0 -50z"/>
<path d="M6010 4415 c0 -24 3 -25 60 -25 57 0 60 1 60 25 0 24 -3 25 -60 25
-57 0 -60 -1 -60 -25z"/>
<path d="M6232 4418 c3 -23 5 -23 181 -26 l177 -2 0 25 0 25 -181 0 -180 0 3
-22z"/>
<path d="M6010 4270 l0 -50 60 0 60 0 0 50 0 50 -60 0 -60 0 0 -50z"/>
<path d="M6010 4125 c0 -24 3 -25 60 -25 57 0 60 1 60 25 0 24 -3 25 -60 25
-57 0 -60 -1 -60 -25z"/>
<path d="M6230 4125 l0 -25 180 0 180 0 0 25 0 25 -180 0 -180 0 0 -25z"/>
<path d="M6010 3980 l0 -50 60 0 60 0 0 50 0 50 -60 0 -60 0 0 -50z"/>
<path d="M6010 3835 c0 -24 3 -25 60 -25 57 0 60 1 60 25 0 24 -3 25 -60 25
-57 0 -60 -1 -60 -25z"/>
<path d="M6234 3838 c3 -23 5 -23 179 -26 l177 -2 0 25 0 25 -180 0 -180 0 4
-22z"/>
<path d="M6010 3695 l0 -55 60 0 60 0 0 55 0 55 -60 0 -60 0 0 -55z"/>
<path d="M4665 5885 c-5 -2 -22 -6 -37 -9 -41 -9 -96 -63 -109 -106 -10 -32
-9 -44 7 -76 19 -39 61 -63 138 -79 63 -13 126 -106 126 -186 0 -14 14 -43 30
-64 85 -107 56 -240 -68 -301 -42 -21 -60 -25 -93 -20 -144 23 -224 152 -154
247 37 51 48 76 42 93 -3 8 -41 31 -84 51 -85 39 -137 84 -185 158 -16 26 -36
47 -42 47 -26 0 -196 -131 -196 -151 0 -3 17 -9 38 -12 119 -20 277 -159 356
-314 20 -40 26 -67 26 -116 0 -52 5 -71 29 -108 35 -55 63 -81 121 -111 41
-21 61 -23 203 -26 l158 -4 -3 434 c-3 424 -3 434 -25 478 -33 67 -75 112
-129 142 -45 24 -125 42 -149 33z"/>
<path d="M4125 4049 c-100 -37 -116 -53 -123 -118 -4 -46 -2 -53 26 -81 25
-25 39 -30 76 -30 57 0 93 29 106 85 11 48 13 175 3 174 -5 0 -44 -14 -88 -30z"/>
</g>
</svg>

